# xmcd
#
# Track frame offsets:
#	150
#	16986
#	38930
#	59414
#	79155
#	102703
#	124000
#	142809
#	160884
#	178846
#	190293
#
# Disc length: 2795 seconds
#
# Revision: 0
# Processed by: cddbd v1.5.1PL2 Copyright (c) Steve Scherf et al.
# Submitted via: audiograbber 1.83.01
#
DISCID=960ae90b
DTITLE=Isfjorden Blues Compagni - Blues For Sarah
DYEAR=2006
DGENRE=Blues
TTITLE0=Homesick
TTITLE1=Blues For Sarah
TTITLE2=Nothing More To Say
TTITLE3=I Got A Girl
TTITLE4=High Speedin' Mama
TTITLE5=Late LAte Night
TTITLE6=Brand New Car
TTITLE7=I Gave You Love
TTITLE8=Totto Shuffle
TTITLE9=Love Me Two Times
TTITLE10=Rock You All Night
EXTD=
EXTT0=
EXTT1=
EXTT2=
EXTT3=
EXTT4=
EXTT5=
EXTT6=
EXTT7=
EXTT8=
EXTT9=
EXTT10=
PLAYORDER=
